<?xml version="1.0" standalone="no"?>
<!DOCTYPE svg PUBLIC "-//W3C//DTD SVG 20010904//EN"
 "http://www.w3.org/TR/2001/REC-SVG-20010904/DTD/svg10.dtd">
<svg version="1.0" xmlns="http://www.w3.org/2000/svg"
 width="4375.000000pt" height="4375.000000pt" viewBox="0 0 4375.000000 4375.000000"
 preserveAspectRatio="xMidYMid meet">
<metadata>
Created by potrace 1.16, written by Peter Selinger 2001-2019
</metadata>
<g transform="translate(0.000000,4375.000000) scale(0.100000,-0.100000)"
fill="#000000" stroke="none">
<path d="M28459 36814 l-4066 -4066 -329 65 c-1869 373 -3780 267 -5594 -310
-414 -131 -933 -333 -1295 -503 -49 -23 -124 -58 -165 -77 l-75 -34 2473 2473
2472 2473 0 417 0 417 -50 -48 c-28 -27 -50 -45 -50 -40 0 5 -4 9 -10 9 -5 0
-10 -6 -10 -14 0 -8 -7 -16 -15 -20 -8 -3 -24 -20 -35 -38 -11 -18 -20 -29
-20 -24 0 5 -16 -7 -35 -27 -20 -21 -40 -37 -45 -37 -6 0 -10 -4 -10 -10 0 -5
5 -10 11 -10 5 0 7 -5 4 -10 -4 -6 -11 -8 -16 -4 -13 7 -49 -24 -49 -43 0 -7
-7 -13 -15 -13 -8 0 -15 -7 -15 -15 0 -8 -5 -15 -10 -15 -6 0 -20 -16 -32 -37
-12 -20 -24 -31 -26 -24 -3 10 -21 -6 -78 -71 -6 -7 -23 -22 -38 -32 -14 -10
-26 -25 -26 -33 0 -8 -5 -11 -11 -8 -6 4 -13 -2 -16 -14 -3 -11 -13 -23 -22
-26 -9 -3 -27 -21 -41 -40 -14 -18 -33 -36 -42 -38 -10 -3 -18 -12 -18 -21 0
-9 -4 -16 -10 -16 -8 0 -113 -103 -203 -199 -21 -23 -44 -41 -52 -41 -8 0 -15
-4 -15 -9 0 -12 -59 -71 -71 -71 -5 0 -9 -4 -9 -9 0 -12 -59 -71 -71 -71 -5 0
-9 -4 -9 -9 0 -12 -59 -71 -71 -71 -5 0 -9 -5 -9 -11 0 -6 -11 -20 -25 -31
-14 -11 -25 -25 -25 -33 0 -7 -16 -22 -35 -34 -20 -11 -38 -27 -41 -36 -4 -8
-12 -15 -20 -15 -8 0 -14 -4 -14 -10 0 -12 -138 -150 -150 -150 -6 0 -10 -5
-10 -11 0 -6 -11 -20 -25 -31 -14 -11 -25 -25 -25 -33 0 -7 -15 -22 -34 -33
-19 -11 -40 -33 -48 -49 -7 -15 -18 -27 -23 -26 -14 2 -46 -28 -56 -54 -4 -12
-20 -27 -35 -35 -15 -7 -35 -26 -44 -43 -9 -16 -26 -31 -38 -33 -11 -2 -24
-12 -27 -22 -3 -10 -15 -22 -26 -25 -10 -4 -19 -12 -19 -18 0 -7 -10 -17 -22
-22 -12 -6 -25 -21 -28 -34 -5 -22 -14 -30 -60 -51 -8 -4 -17 -17 -20 -30 -3
-13 -14 -28 -25 -34 -10 -6 -28 -19 -39 -28 -11 -10 -26 -18 -33 -18 -7 0 -19
-16 -27 -35 -8 -19 -20 -35 -25 -35 -6 0 -11 -7 -11 -15 0 -8 -18 -26 -40 -40
-22 -14 -40 -30 -40 -35 0 -6 -7 -10 -15 -10 -8 0 -15 -7 -15 -15 0 -8 -4 -15
-9 -15 -5 0 -18 -16 -30 -35 -11 -19 -32 -40 -46 -45 -14 -5 -25 -14 -25 -19
0 -5 -39 -50 -88 -100 -48 -50 -96 -102 -107 -115 -11 -14 -28 -27 -38 -30
-10 -2 -21 -14 -24 -25 -3 -12 -16 -24 -28 -27 -28 -7 -52 -32 -57 -59 -2 -11
-16 -26 -31 -33 -16 -8 -33 -25 -39 -38 -9 -18 -14 -21 -25 -13 -10 9 -13 7
-13 -10 0 -11 -6 -21 -13 -21 -7 0 -21 -16 -30 -35 -10 -21 -24 -35 -35 -35
-20 0 -52 -29 -52 -48 0 -6 -10 -16 -22 -23 -27 -13 -168 -155 -168 -168 0 -5
-9 -11 -20 -14 -11 -3 -20 -12 -20 -21 0 -9 -8 -16 -20 -16 -13 0 -20 -7 -20
-20 0 -11 -4 -20 -8 -20 -7 0 -65 -55 -117 -110 -28 -30 -99 -90 -107 -90 -4
0 -8 -6 -8 -12 -1 -19 -47 -68 -65 -68 -8 0 -15 -7 -15 -15 0 -8 -5 -15 -10
-15 -6 0 -16 -11 -22 -25 -6 -14 -16 -25 -23 -25 -6 0 -22 -14 -35 -31 -14
-17 -36 -40 -49 -52 -14 -12 -32 -30 -42 -40 -30 -33 -33 -36 -77 -77 -24 -22
-48 -40 -53 -40 -5 0 -9 -6 -9 -12 -1 -19 -47 -68 -65 -68 -8 0 -15 -4 -15 -9
0 -14 -135 -151 -148 -151 -7 0 -12 -5 -12 -11 0 -14 -55 -69 -69 -69 -6 0
-11 -4 -11 -9 0 -6 -81 -92 -180 -192 -99 -100 -180 -186 -180 -190 0 -5 -9
-9 -20 -9 -11 0 -20 -6 -20 -13 0 -7 -9 -18 -21 -25 -12 -8 -18 -19 -15 -28 4
-10 -2 -14 -19 -14 -14 0 -25 -4 -25 -9 0 -12 -59 -71 -71 -71 -5 0 -9 -4 -9
-8 0 -14 -214 -232 -228 -232 -6 0 -12 -4 -12 -9 0 -12 -59 -71 -71 -71 -5 0
-9 -6 -9 -14 0 -8 -7 -16 -15 -20 -8 -3 -15 -15 -15 -27 0 -18 -5 -21 -29 -17
-22 3 -27 1 -24 -11 4 -20 -4 -32 -40 -54 -16 -10 -26 -25 -25 -35 2 -9 -4
-17 -12 -17 -8 0 -26 -18 -42 -40 -15 -22 -32 -39 -39 -37 -17 4 -49 -28 -49
-50 0 -12 -12 -24 -31 -32 -19 -8 -37 -26 -45 -45 -8 -19 -20 -31 -32 -31 -10
0 -25 -11 -32 -25 -7 -14 -22 -25 -33 -25 -13 0 -17 -5 -13 -15 3 -8 0 -15 -5
-15 -6 0 -40 -29 -75 -65 -35 -36 -68 -65 -74 -65 -5 0 -10 -7 -10 -15 0 -8
-5 -15 -10 -15 -6 0 -16 -11 -22 -25 -6 -14 -19 -25 -30 -25 -10 0 -18 -4 -18
-10 0 -12 -27 -46 -60 -74 -48 -41 -140 -138 -140 -147 0 -5 -7 -9 -14 -9 -8
0 -28 -17 -43 -37 -15 -21 -30 -40 -34 -43 -3 -3 -8 -13 -12 -23 -4 -9 -11
-16 -16 -15 -5 2 -25 -11 -43 -29 -70 -67 -100 -93 -109 -93 -5 0 -9 -7 -9
-15 0 -8 -5 -15 -11 -15 -6 0 -40 -29 -76 -65 -36 -36 -68 -65 -72 -65 -4 0
-19 -12 -34 -27 -31 -34 -54 -53 -62 -53 -11 0 -65 -58 -65 -69 0 -6 -6 -11
-12 -11 -7 -1 -26 -19 -43 -40 -22 -30 -36 -39 -52 -36 -12 2 -20 0 -18 -5 7
-10 -23 -39 -41 -39 -8 0 -14 -9 -14 -20 0 -11 -7 -20 -15 -20 -8 0 -24 -9
-34 -19 -11 -11 -22 -17 -25 -13 -3 3 -6 0 -6 -7 0 -15 -133 -148 -182 -182
-43 -30 -41 -28 -256 -240 -103 -102 -179 -185 -176 -191 4 -6 2 -8 -3 -5 -12
8 -87 -56 -77 -65 3 -4 -3 -9 -14 -12 -10 -4 -32 -21 -49 -39 -16 -17 -62 -61
-102 -97 -40 -36 -98 -90 -129 -120 -32 -30 -73 -70 -92 -88 -19 -18 -42 -40
-51 -50 -9 -9 -37 -34 -63 -55 -26 -22 -43 -43 -40 -49 5 -8 1 -9 -10 -5 -14
6 -16 3 -11 -13 5 -14 3 -18 -8 -14 -7 2 -20 -3 -28 -12 -12 -15 -12 -17 0 -9
10 5 12 4 7 -3 -4 -7 -13 -12 -20 -12 -8 0 -20 -8 -27 -17 -12 -14 -12 -16 0
-8 10 5 12 4 7 -4 -4 -6 -11 -9 -16 -6 -4 3 -34 -20 -65 -50 -31 -30 -51 -55
-44 -55 7 0 2 -9 -11 -20 -12 -11 -26 -17 -31 -15 -9 6 -35 -35 -31 -49 2 -5
-5 -5 -15 -2 -9 4 -14 4 -10 0 9 -9 -12 -36 -23 -29 -4 3 -7 -2 -6 -11 0 -9
-10 -23 -24 -31 -21 -12 -22 -13 -7 0 9 8 17 18 17 22 0 5 -9 0 -20 -10 -11
-10 -20 -24 -20 -31 0 -7 -14 -22 -30 -34 -17 -12 -28 -25 -25 -29 2 -4 -9
-21 -25 -36 -17 -16 -30 -25 -30 -21 0 5 -7 3 -15 -4 -8 -7 -12 -17 -8 -23 3
-5 1 -7 -4 -4 -14 9 -128 -101 -137 -130 -4 -13 -15 -23 -26 -23 -10 0 -22
-10 -25 -21 -7 -20 -80 -98 -94 -100 -3 0 -24 -22 -46 -48 -22 -27 -43 -46
-47 -44 -5 2 -8 -2 -8 -9 0 -7 -23 -36 -51 -63 -28 -28 -60 -61 -72 -74 -93
-102 -236 -249 -432 -446 -126 -126 -229 -233 -228 -236 1 -3 -9 -12 -22 -19
-14 -7 -25 -17 -25 -22 0 -5 -13 -21 -29 -37 -16 -16 -36 -42 -44 -57 -9 -16
-33 -45 -54 -64 -21 -20 -37 -42 -35 -52 2 -9 -2 -19 -7 -23 -6 -3 -11 -2 -11
3 0 5 -6 9 -13 9 -10 0 -13 -10 -11 -31 2 -17 0 -26 -4 -21 -4 6 -15 11 -24
11 -14 1 -16 -4 -12 -22 6 -23 -1 -27 -33 -23 -6 1 -27 -31 -28 -43 0 -3 -12
-16 -27 -28 -16 -12 -28 -26 -28 -32 0 -6 -16 -28 -35 -49 -19 -22 -35 -44
-35 -50 0 -6 -9 -9 -20 -6 -11 3 -18 1 -15 -3 3 -5 -5 -20 -17 -33 -13 -13
-54 -59 -93 -102 -38 -43 -78 -85 -88 -94 -9 -8 -17 -19 -17 -24 0 -5 -11 -18
-25 -29 -14 -11 -25 -23 -25 -28 0 -15 -80 -90 -96 -90 -8 0 -14 -5 -14 -10 0
-9 -25 -39 -68 -82 -8 -7 -40 -39 -73 -71 -32 -32 -59 -63 -59 -68 0 -5 -8 -9
-18 -9 -9 0 -28 -18 -42 -40 -14 -22 -33 -40 -42 -40 -10 0 -18 -7 -18 -15 0
-8 -5 -15 -10 -15 -6 0 -16 -11 -22 -25 -6 -14 -19 -25 -30 -25 -10 0 -18 -4
-18 -10 0 -5 -8 -19 -17 -29 -10 -11 -23 -26 -29 -33 -7 -7 -25 -25 -40 -40
-16 -14 -33 -31 -39 -37 -24 -27 -99 -91 -107 -91 -4 0 -8 -6 -8 -12 -1 -19
-47 -68 -65 -68 -8 0 -15 -7 -15 -15 0 -9 -7 -18 -15 -21 -8 -3 -17 -14 -20
-25 -4 -10 -15 -19 -26 -19 -11 0 -17 -5 -14 -10 3 -6 -1 -13 -9 -16 -9 -3
-25 -22 -37 -41 -16 -26 -24 -31 -30 -21 -7 11 -9 11 -9 -1 0 -7 -11 -22 -25
-33 -14 -11 -25 -25 -25 -33 0 -7 -16 -22 -35 -34 -19 -11 -40 -32 -45 -46 -5
-14 -21 -30 -35 -35 -13 -5 -30 -18 -37 -30 -7 -11 -21 -20 -30 -20 -10 0 -18
-7 -18 -16 0 -9 -11 -25 -26 -36 -14 -11 -23 -23 -20 -26 9 -9 -15 -32 -34
-32 -9 0 -23 -11 -30 -25 -7 -14 -17 -25 -22 -25 -13 0 -57 -52 -58 -67 0 -7
-9 -13 -20 -13 -11 0 -20 -7 -20 -15 0 -8 -4 -15 -9 -15 -12 0 -71 -59 -71
-70 0 -5 -17 -21 -38 -36 -20 -15 -51 -46 -68 -68 -17 -23 -36 -40 -43 -38 -6
1 -11 -2 -11 -7 0 -6 -45 -55 -100 -111 -55 -56 -100 -105 -100 -111 0 -5 -9
-9 -20 -9 -11 0 -20 -6 -20 -12 -1 -19 -47 -68 -65 -68 -9 0 -15 -9 -15 -25 0
-14 -6 -25 -14 -25 -13 0 -76 -55 -76 -66 0 -3 -6 -11 -13 -19 -11 -10 -15
-102 -21 -430 -4 -230 -4 -420 -1 -423 3 -4 631 619 1396 1383 765 765 1385
1378 1378 1363 -7 -16 -16 -28 -21 -28 -5 0 -6 -4 -3 -10 3 -5 1 -10 -6 -10
-7 0 -10 -3 -6 -6 8 -8 -21 -64 -33 -64 -5 0 -6 -7 -3 -17 4 -10 2 -14 -4 -10
-7 5 -14 -8 -18 -33 -4 -22 -11 -42 -16 -45 -5 -4 -6 2 -2 12 3 10 2 15 -2 10
-7 -6 -10 -17 -14 -60 -1 -5 -6 -5 -12 -1 -6 3 -10 -1 -9 -12 4 -34 0 -43 -21
-49 -13 -4 -18 -12 -15 -22 4 -10 -1 -17 -15 -20 -21 -6 -21 -7 -4 -20 14 -10
15 -13 4 -14 -8 -1 -18 -1 -23 0 -5 1 -3 -5 4 -14 7 -9 9 -15 4 -14 -23 4 -34
-3 -34 -20 0 -11 -5 -23 -11 -26 -6 -4 -8 -13 -5 -21 3 -8 1 -14 -4 -14 -6 0
-10 -6 -10 -14 0 -8 -6 -21 -12 -28 -25 -26 -43 -52 -32 -45 7 4 18 -1 25 -11
11 -14 11 -15 0 -5 -14 12 -44 6 -36 -7 3 -5 1 -11 -5 -15 -5 -3 -10 -13 -10
-20 0 -8 -7 -23 -15 -32 -8 -10 -15 -22 -14 -27 0 -5 -5 -13 -13 -17 -11 -7
-10 -9 1 -9 9 0 6 -7 -9 -20 -13 -11 -20 -20 -15 -20 4 0 4 -6 -1 -13 -5 -7
-2 -6 7 3 8 8 35 33 58 55 l43 40 -17 -40 c-111 -267 -307 -839 -390 -1140
l-47 -170 -163 -165 c-136 -138 -165 -173 -176 -210 -7 -25 -13 -50 -14 -57 0
-6 -4 -15 -8 -19 -4 -4 -7 -18 -7 -31 0 -13 -4 -23 -10 -23 -5 0 -10 -10 -10
-22 0 -13 -7 -36 -15 -52 -9 -16 -13 -36 -10 -44 3 -7 -3 -26 -14 -40 -10 -15
-22 -43 -26 -62 -4 -19 -13 -38 -19 -42 -7 -5 -3 -8 9 -8 13 0 80 60 185 165
90 90 165 163 167 161 2 -1 -10 -67 -26 -147 -117 -573 -183 -1088 -221 -1714
-12 -199 -6 -1122 9 -1305 34 -423 49 -571 87 -835 26 -183 80 -502 113 -668
23 -115 23 -115 -1 -212 -12 -44 -20 -92 -19 -107 1 -15 -3 -29 -8 -32 -4 -3
-6 -16 -4 -30 3 -13 0 -27 -6 -30 -6 -4 -11 -23 -11 -42 0 -19 -6 -45 -14 -57
-8 -12 -16 -31 -18 -42 -2 -11 -8 -26 -15 -33 -7 -7 -10 -19 -6 -28 3 -8 -2
-23 -11 -33 -9 -10 -13 -20 -10 -24 4 -4 -1 -18 -11 -33 -9 -14 -18 -43 -19
-63 -1 -20 -9 -53 -19 -74 -9 -21 -31 -82 -49 -135 -18 -53 -45 -117 -60 -141
-15 -25 -28 -48 -28 -53 0 -4 -16 -32 -35 -62 -19 -30 -35 -60 -35 -67 0 -6
-7 -17 -15 -23 -8 -6 -17 -22 -20 -35 -2 -13 -11 -31 -18 -40 -8 -9 -29 -43
-47 -76 -18 -33 -50 -86 -71 -119 -22 -32 -39 -62 -39 -67 0 -5 -4 -9 -9 -9
-15 0 -42 -51 -44 -83 -1 -21 -11 -40 -29 -55 -16 -13 -28 -32 -28 -43 0 -11
-7 -19 -16 -19 -9 0 -14 -6 -11 -13 3 -7 -3 -19 -14 -25 -10 -6 -24 -22 -30
-34 -12 -22 -11 -22 7 -8 18 14 18 14 5 -2 -7 -10 -20 -18 -28 -18 -8 0 -11
-4 -8 -10 3 -5 3 -10 -2 -10 -4 0 -19 -10 -33 -21 -14 -11 -18 -17 -10 -13 13
6 -4 -16 -54 -71 -5 -6 -6 -4 -1 5 8 13 7 13 -8 1 -9 -7 -17 -19 -17 -25 -1
-15 -66 -87 -73 -79 -4 3 -11 -5 -16 -18 -5 -13 -188 -201 -405 -418 -218
-217 -396 -399 -396 -404 0 -6 462 450 1026 1013 564 562 1029 1019 1034 1014
4 -5 27 -70 50 -144 67 -214 164 -485 266 -742 51 -131 95 -243 96 -250 2 -7
5 -15 8 -18 13 -13 30 -63 24 -72 -4 -6 -2 -8 4 -4 13 8 26 -29 16 -45 -5 -8
-3 -9 6 -4 10 6 12 4 7 -9 -4 -10 -3 -15 3 -11 6 4 31 -39 57 -97 268 -588
642 -1236 1038 -1801 l48 -68 -54 -57 c-29 -31 -225 -229 -434 -439 -209 -211
-373 -383 -365 -383 12 0 13 -2 1 -9 -19 -12 -3 -34 21 -28 12 4 18 1 15 -6
-3 -7 -10 -11 -17 -9 -11 3 -11 0 0 -12 15 -19 24 -21 15 -3 -4 6 1 3 9 -7 9
-11 16 -25 16 -31 0 -6 9 -17 20 -25 11 -8 20 -20 20 -26 0 -7 8 -20 17 -29
17 -18 39 -53 70 -112 9 -18 23 -33 30 -33 8 0 11 -5 8 -11 -4 -5 3 -19 15
-29 12 -10 19 -24 15 -29 -3 -6 -2 -11 4 -11 5 0 20 -17 32 -37 13 -21 38 -54
56 -73 22 -24 28 -37 20 -42 -8 -5 -6 -8 6 -8 9 0 17 -5 17 -10 0 -6 11 -22
25 -36 14 -14 23 -30 20 -35 -4 -5 -2 -9 2 -9 5 0 23 -22 41 -50 18 -27 37
-50 41 -50 5 0 14 -14 20 -30 5 -17 17 -33 26 -36 8 -3 15 -12 15 -20 0 -8 5
-14 10 -14 6 0 10 -7 10 -16 0 -8 4 -13 9 -9 5 3 12 1 16 -5 3 -5 1 -10 -5
-10 -6 0 -8 -5 -5 -10 4 -6 10 -8 15 -5 5 3 12 0 16 -6 4 -7 136 117 338 317
182 181 388 385 457 452 l126 124 48 -47 c42 -42 51 -57 54 -88 1 -5 5 -5 11
-2 6 3 10 -1 10 -10 0 -8 7 -18 16 -22 8 -3 13 -12 10 -19 -3 -8 0 -13 7 -11
7 1 11 -4 9 -12 -3 -12 0 -12 12 -2 12 10 14 9 9 -7 -3 -14 1 -22 16 -27 12
-3 19 -10 16 -15 -3 -5 1 -10 7 -12 7 -3 13 -13 13 -24 0 -10 6 -18 13 -16 6
1 12 -3 12 -9 0 -5 5 -7 12 -3 8 5 9 2 5 -9 -3 -10 -2 -17 3 -17 6 0 9 -5 8
-12 -2 -7 3 -13 10 -14 6 -1 17 -2 23 -3 5 0 7 -5 4 -11 -3 -5 -1 -10 4 -10 6
0 11 -7 11 -15 0 -9 7 -18 15 -21 35 -14 40 -9 -454 -509 -190 -192 -366 -371
-390 -397 l-44 -47 51 -50 c29 -27 52 -54 52 -59 0 -5 16 -22 35 -37 19 -16
32 -32 29 -36 -2 -4 9 -16 26 -25 16 -10 30 -22 30 -27 0 -14 27 -37 44 -37 9
0 16 -8 16 -18 0 -10 9 -24 19 -32 11 -7 18 -17 16 -21 -3 -4 5 -16 18 -27
118 -108 187 -178 187 -189 0 -8 4 -11 10 -8 6 3 10 0 10 -7 1 -19 58 -79 72
-76 7 2 12 -3 10 -9 -1 -7 5 -13 13 -13 8 0 15 -7 15 -15 0 -8 7 -15 15 -15 8
0 15 -4 15 -9 0 -5 11 -19 25 -32 13 -13 25 -35 25 -48 0 -13 12 -39 26 -58
14 -19 23 -41 20 -48 -3 -8 -2 -15 3 -15 13 0 35 -82 32 -120 -2 -19 -8 -41
-14 -48 -8 -10 -7 -16 4 -23 12 -8 12 -10 0 -18 -8 -5 -11 -16 -8 -25 4 -9 2
-16 -3 -16 -6 0 -10 -13 -10 -30 0 -16 -4 -30 -9 -30 -5 0 -7 -9 -4 -20 3 -11
-3 -32 -13 -47 -10 -16 -19 -39 -20 -53 -2 -13 -15 -33 -29 -43 -15 -11 -25
-28 -25 -43 0 -13 -6 -24 -12 -24 -10 0 -9 -3 1 -9 7 -5 9 -10 5 -12 -5 -2
-18 -21 -28 -42 -11 -20 -25 -37 -33 -37 -10 0 -12 -6 -8 -20 3 -11 2 -20 -4
-20 -5 0 -13 -9 -16 -20 -3 -11 -13 -20 -21 -20 -8 0 -14 -7 -14 -15 0 -8 -5
-15 -12 -15 -14 0 -148 -134 -148 -149 0 -6 -5 -11 -12 -11 -16 0 -68 -51 -68
-67 0 -7 -5 -13 -11 -13 -6 0 -177 -165 -379 -367 -203 -203 -417 -416 -477
-475 -60 -59 -131 -131 -159 -160 -28 -29 -119 -120 -202 -201 -82 -82 -170
-169 -195 -195 -37 -39 -92 -94 -189 -191 -9 -9 -78 -78 -155 -155 -76 -76
-213 -214 -305 -306 -93 -93 -168 -173 -168 -179 0 -6 -5 -11 -11 -11 -14 0
-79 -67 -79 -81 0 -5 -6 -9 -14 -9 -8 0 -18 -9 -21 -20 -3 -11 -13 -20 -21
-20 -8 0 -14 -6 -14 -14 0 -7 -14 -24 -31 -37 -17 -13 -35 -34 -40 -46 -5 -13
-15 -23 -24 -23 -8 0 -15 -7 -15 -15 0 -9 -6 -18 -14 -21 -8 -3 -16 -14 -19
-25 -3 -10 -13 -22 -23 -26 -22 -8 -43 -29 -74 -75 -13 -20 -27 -35 -30 -33
-3 2 -22 -16 -41 -40 -18 -24 -39 -44 -44 -45 -6 0 -21 -18 -34 -39 -14 -22
-33 -45 -44 -53 -11 -7 -27 -21 -36 -32 -9 -10 -41 -44 -71 -75 -46 -48 -160
-170 -295 -316 -16 -18 -48 -54 -70 -81 -65 -78 -108 -126 -145 -163 -19 -19
-35 -38 -35 -42 0 -4 -28 -37 -62 -74 -35 -38 -63 -72 -63 -77 0 -4 -5 -8 -10
-8 -12 0 -59 -50 -60 -63 0 -4 -25 -31 -55 -60 -30 -28 -55 -57 -55 -64 0 -6
-9 -14 -19 -18 -10 -3 -24 -19 -31 -35 -7 -17 -19 -30 -26 -30 -8 0 -19 -11
-24 -25 -5 -14 -14 -25 -20 -25 -5 0 -10 -7 -10 -15 0 -8 -6 -15 -14 -15 -8 0
-25 -18 -37 -39 -12 -22 -35 -49 -50 -60 -16 -12 -29 -27 -29 -33 0 -7 -17
-28 -37 -48 -21 -19 -45 -49 -54 -65 -10 -17 -26 -34 -37 -40 -12 -5 -25 -19
-30 -30 -6 -12 -33 -49 -61 -83 -28 -34 -51 -65 -51 -69 0 -4 -16 -18 -35 -31
-19 -12 -35 -28 -35 -35 0 -6 -13 -25 -30 -40 -16 -16 -30 -34 -30 -41 0 -6
-13 -26 -30 -44 -16 -18 -30 -39 -30 -45 0 -7 -10 -17 -22 -22 -13 -6 -24 -20
-26 -32 -2 -13 -18 -35 -36 -50 -18 -16 -38 -42 -45 -60 -7 -17 -19 -34 -28
-37 -8 -3 -11 -10 -8 -16 3 -5 3 -10 -2 -10 -4 0 -19 -18 -33 -40 -13 -22 -30
-40 -37 -40 -7 0 -13 -8 -13 -18 0 -11 -9 -29 -20 -42 -11 -13 -20 -29 -20
-36 0 -7 -8 -18 -18 -23 -10 -6 -36 -39 -57 -75 -21 -37 -42 -66 -46 -66 -3 0
-14 -16 -23 -35 -9 -19 -21 -34 -25 -32 -11 3 -61 -69 -61 -88 0 -7 -10 -22
-23 -32 -13 -10 -30 -31 -38 -48 -20 -39 -43 -79 -49 -85 -3 -3 -18 -23 -34
-45 -17 -22 -40 -51 -53 -64 -13 -14 -23 -36 -23 -52 0 -16 -4 -29 -10 -29 -5
0 -16 -15 -24 -33 -8 -17 -21 -43 -29 -57 -38 -69 -47 -94 -38 -99 6 -4 1 -12
-10 -20 -12 -7 -18 -8 -15 -2 4 5 2 12 -3 16 -6 3 -8 -6 -5 -21 3 -15 1 -23
-5 -20 -6 4 -15 -3 -21 -14 -9 -16 -8 -25 1 -38 11 -14 11 -15 -1 -5 -11 10
-16 9 -27 -5 -14 -16 -14 -16 -9 1 3 10 2 16 -3 13 -5 -3 -8 -17 -8 -32 0 -17
2 -22 7 -13 5 7 16 14 25 15 14 2 14 -1 -4 -17 -12 -11 -21 -23 -21 -27 0 -8
798 786 3720 3705 2053 2052 2346 2340 2352 2321 3 -13 6 -178 7 -368 l1 -344
1028 1027 1029 1027 31 -16 c18 -8 39 -25 47 -37 13 -19 15 -19 15 -3 0 14 5
12 25 -12 13 -16 47 -40 75 -53 27 -13 50 -27 50 -32 0 -4 4 -5 10 -2 5 3 10
2 10 -4 0 -5 8 -12 18 -15 9 -3 31 -19 49 -36 17 -16 53 -41 80 -56 26 -15 69
-42 94 -60 26 -19 52 -34 58 -34 6 0 11 -3 11 -7 0 -8 47 -33 61 -33 11 0 191
-110 207 -127 7 -7 19 -13 27 -13 7 0 15 -3 17 -7 4 -10 35 -27 238 -130 91
-47 205 -107 255 -135 49 -27 99 -51 110 -52 11 -1 50 -17 86 -34 36 -18 71
-32 78 -32 7 0 9 -5 5 -12 -5 -8 -2 -9 10 -5 10 4 -139 -153 -331 -349 -191
-195 -348 -362 -348 -370 0 -10 31 -28 89 -50 49 -20 95 -42 103 -50 8 -8 20
-15 26 -15 40 -4 77 -18 77 -29 0 -5 13 -11 30 -15 16 -4 30 -11 30 -16 0 -5
11 -9 25 -9 14 0 25 -4 25 -10 0 -5 6 -10 14 -10 13 0 75 -28 148 -67 15 -7
33 -13 40 -12 7 1 26 -3 41 -9 16 -7 33 -12 38 -12 5 0 9 -5 9 -11 0 -5 4 -8
9 -5 10 7 77 -19 85 -33 3 -4 19 -11 36 -14 28 -6 43 -27 19 -27 -5 0 -7 -5
-4 -11 5 -6 12 -4 20 8 11 14 16 15 26 6 9 -9 -32 -56 -176 -207 -105 -110
-184 -200 -180 -206 4 -6 12 -9 18 -7 7 2 23 -1 37 -8 48 -25 145 -64 175 -70
17 -4 39 -13 50 -20 11 -6 44 -20 73 -30 28 -11 52 -22 52 -26 0 -4 6 -6 13
-6 14 2 118 -29 165 -49 18 -8 44 -14 57 -14 14 0 25 -4 25 -9 0 -4 38 -18 85
-31 47 -13 88 -27 91 -32 3 -4 16 -8 28 -8 13 0 36 -7 52 -15 16 -8 49 -17 74
-21 25 -4 50 -10 55 -14 6 -4 35 -14 65 -23 163 -47 201 -58 270 -78 114 -32
203 -50 218 -44 7 2 10 0 7 -5 -8 -12 -3 -14 115 -34 110 -19 274 -58 278 -67
1 -3 15 -4 31 -1 16 2 32 -1 35 -7 4 -6 24 -8 51 -4 28 3 45 2 45 -4 0 -12 64
-25 225 -49 61 -8 121 -20 134 -25 14 -6 66 -11 115 -11 60 0 82 -3 66 -8 -24
-8 -23 -8 7 -9 17 -1 35 3 38 9 9 15 25 12 25 -5 0 -8 8 -15 18 -16 79 -5 106
-7 172 -14 41 -4 78 -12 81 -17 3 -5 50 -9 105 -10 54 -1 105 -5 111 -11 8 -6
47 -7 98 -2 52 4 85 3 85 -3 0 -10 151 -22 345 -27 66 -2 177 -6 247 -9 91 -4
128 -2 130 6 3 9 11 9 34 0 32 -13 297 -9 396 6 51 8 58 7 64 -10 7 -22 20
-23 27 -4 4 11 1 13 -11 9 -13 -4 -14 -3 -6 6 7 8 19 9 35 3 22 -8 63 30 519
480 272 269 508 496 524 505 17 9 25 10 21 3 -6 -9 -2 -9 12 -1 27 14 73 22
158 27 96 5 165 15 165 24 0 3 14 5 30 2 19 -3 30 0 30 7 0 7 5 9 11 5 6 -3
15 0 20 7 7 12 9 12 9 0 0 -11 3 -11 15 -1 8 7 15 9 15 6 0 -13 -139 -156
-565 -586 -232 -234 -427 -434 -433 -446 -9 -16 -8 -21 3 -21 8 0 12 4 9 9 -3
4 0 8 5 8 6 0 11 -4 11 -10 0 -5 10 -10 22 -10 21 0 21 0 3 14 -18 13 -15 13
25 6 29 -5 47 -5 51 2 7 10 119 4 164 -9 17 -5 18 -4 7 10 -11 13 -8 15 28 10
27 -4 40 -2 40 6 0 8 20 12 58 12 114 -1 142 3 130 17 -9 10 -6 11 14 3 28
-10 -65 -100 1281 1238 400 398 730 721 734 718 3 -4 16 2 30 12 13 11 41 22
63 26 21 4 44 13 51 21 14 17 33 19 23 2 -5 -7 -3 -8 5 -4 7 5 10 11 7 14 -9
8 75 43 87 35 6 -4 8 0 5 9 -6 16 17 18 40 4 7 -4 14 -1 18 7 3 8 15 17 26 20
13 4 17 10 12 19 -6 11 -5 11 8 0 11 -9 18 -10 23 -2 3 5 11 10 16 10 6 0 -30
-42 -80 -92 l-91 -93 2 -865 c1 -476 5 -913 8 -972 l5 -108 715 713 c393 391
1134 1129 1646 1640 511 510 936 927 943 927 7 0 9 5 6 10 -3 6 0 10 8 10 8 0
22 9 32 20 10 11 15 20 12 20 -4 0 1 8 11 18 9 11 20 17 23 16 8 -4 31 21 25
27 -2 2 11 15 28 29 l31 24 -20 -24 c-16 -21 -14 -20 12 3 17 16 35 30 40 30
4 1 7 7 5 14 -1 6 7 17 18 23 11 6 18 15 15 19 -4 8 31 24 48 22 4 -1 7 3 7 9
0 5 6 10 14 10 16 0 69 66 58 73 -4 2 -2 3 4 1 16 -3 56 25 49 36 -3 4 2 10
10 14 8 3 24 20 36 38 12 18 18 24 15 14 -5 -16 -4 -17 9 -6 8 7 12 16 9 21
-3 5 2 9 10 9 9 0 16 5 16 11 0 5 5 7 10 4 6 -4 10 -3 9 2 -3 19 2 34 10 29 5
-3 14 1 21 9 7 8 9 15 4 15 -4 0 1 7 12 16 10 8 13 12 5 8 -10 -5 -12 -3 -7 5
6 9 11 9 22 0 9 -7 14 -8 12 -2 -3 12 51 63 68 63 6 0 18 8 25 17 12 14 12 16
0 8 -10 -6 -12 -4 -7 4 5 7 13 10 20 8 7 -3 13 4 13 16 1 11 10 27 19 36 16
14 17 14 8 1 -6 -10 -3 -10 7 2 9 9 20 14 24 10 3 -4 5 -2 4 3 -5 16 32 65 44
58 6 -3 7 -1 3 5 -4 7 -3 12 3 12 6 0 13 11 17 25 3 14 10 25 16 25 5 0 6 -6
2 -12 -4 -7 2 -4 13 7 16 15 18 23 9 34 -8 11 -8 13 0 8 6 -3 20 1 30 9 10 9
12 12 4 8 -13 -7 -13 -6 -1 10 8 9 20 15 28 12 7 -3 13 -1 13 5 0 6 6 7 13 3
9 -6 9 -5 -1 8 -10 13 -9 18 5 29 17 13 17 12 4 -6 -7 -11 -2 -8 12 8 14 15
31 27 37 27 5 0 10 5 10 11 0 6 8 18 18 27 10 10 13 14 7 10 -7 -5 -12 -2 -12
6 0 8 9 13 23 11 15 -1 21 2 17 11 -3 8 2 17 11 20 9 3 14 10 11 14 -3 4 6 15
20 24 14 9 25 23 25 31 0 7 5 17 12 21 7 4 8 3 4 -4 -15 -24 2 -11 19 14 11
18 12 24 4 18 -8 -4 4 9 25 29 21 20 43 37 49 37 6 0 7 3 4 7 -8 7 681 700
4478 4501 1446 1447 2633 2632 2637 2632 5 0 8 -98 8 -218 l0 -217 -5870
-5870 -5870 -5870 0 -1550 0 -1550 5885 5885 5885 5885 0 2744 c0 1509 -1
2746 -3 2747 -1 2 -1136 -1130 -2521 -2514 -1386 -1384 -2540 -2536 -2566
-2560 l-47 -42 81 214 82 214 387 392 387 393 0 1126 1 1126 169 175 169 175
1 440 0 440 -163 -163 c-89 -89 -166 -162 -170 -162 -4 0 -7 179 -7 397 l0
397 -75 -74 c-41 -41 -76 -72 -78 -69 -2 2 -12 93 -22 202 l-18 198 45 47 c24
26 68 72 96 102 l52 55 -1 278 c-1 152 -5 280 -10 282 -4 3 -7 20 -7 37 1 18
-4 34 -10 36 -7 2 -12 19 -12 37 0 19 -6 40 -14 48 -8 7 -14 25 -14 38 0 28
-19 99 -22 84 -1 -5 -6 6 -11 25 -19 83 -40 145 -49 148 -6 2 -10 10 -10 19 0
8 -7 21 -15 30 -10 9 -13 23 -9 35 3 12 1 24 -5 28 -7 4 -14 22 -16 41 -6 42
-35 141 -47 154 -4 5 -8 24 -8 42 0 21 -5 32 -12 30 -8 -1 -12 6 -10 17 2 10
-1 15 -7 12 -6 -4 -13 9 -17 33 -4 23 -10 38 -15 35 -5 -3 -9 4 -9 15 0 11 -5
23 -11 26 -6 4 -8 13 -5 20 5 15 -15 65 -26 65 -5 0 -8 5 -8 11 0 5 6 7 13 3
10 -6 10 -4 0 7 -7 7 -13 21 -13 31 0 10 -4 18 -10 18 -5 0 -10 10 -10 23 0
18 -2 19 -10 7 -7 -11 -10 -3 -10 30 0 25 -7 54 -15 64 -8 11 -15 30 -15 42 0
12 -6 24 -14 27 -7 3 -16 20 -20 39 -3 18 -20 53 -36 77 -17 25 -28 51 -26 58
3 7 -2 17 -11 21 -10 6 -14 16 -10 26 4 9 1 16 -6 16 -9 0 -8 3 1 9 10 6 8 10
-9 14 -18 5 -20 9 -11 20 7 8 9 17 5 21 -4 3 125 139 286 300 162 162 297 300
302 307 11 17 12 449 1 449 -4 0 -187 -180 -407 -400 -220 -220 -403 -400
-406 -400 -3 0 -30 62 -59 138 -203 525 -483 1107 -776 1607 l-123 210 569
570 570 570 0 500 0 500 -767 -767 -768 -767 -162 217 c-284 380 -594 747
-886 1048 -86 89 -157 166 -157 170 0 5 617 625 1370 1379 l1370 1370 -2 4193
-3 4192 -4066 -4066z m3261 -1616 c0 -732 -3 -1029 -11 -1018 -8 12 -9 8 -6
-15 5 -27 4 -28 -9 -10 -11 15 -14 16 -14 3 0 -9 -18 -32 -40 -52 -22 -20 -37
-36 -33 -36 5 0 -3 -8 -17 -18 -35 -23 -70 -55 -70 -63 0 -3 -18 -25 -40 -48
-22 -23 -40 -40 -40 -37 0 3 -11 -5 -25 -18 -14 -13 -25 -28 -25 -33 0 -6 -10
-13 -21 -16 -14 -4 -20 -11 -16 -21 4 -10 -1 -16 -16 -18 -14 -2 -23 -11 -25
-25 -2 -15 -8 -20 -18 -16 -8 3 -14 2 -13 -3 4 -23 -3 -34 -21 -34 -11 0 -23
-7 -26 -15 -4 -8 -13 -15 -21 -15 -10 0 -13 -6 -9 -16 3 -8 2 -13 -3 -10 -10
7 -81 -71 -73 -79 4 -3 -1 -3 -11 1 -11 4 -17 1 -17 -9 0 -8 -7 -17 -15 -21
-8 -3 -15 -12 -15 -21 0 -8 -5 -15 -11 -15 -14 0 -69 -55 -69 -69 0 -6 -5 -11
-11 -11 -14 0 -69 -55 -69 -69 0 -6 -5 -11 -11 -11 -14 0 -69 -55 -69 -69 0
-6 -6 -11 -13 -11 -19 0 -67 -53 -67 -73 0 -9 -7 -17 -14 -17 -18 0 -66 -43
-66 -59 0 -6 -5 -11 -11 -11 -14 0 -69 -55 -69 -69 0 -6 -5 -11 -10 -11 -14 0
-150 -136 -150 -150 0 -5 -5 -10 -10 -10 -14 0 -150 -136 -150 -150 0 -5 -5
-10 -10 -10 -14 0 -150 -136 -150 -150 0 -5 -5 -10 -10 -10 -14 0 -150 -136
-150 -150 0 -5 -5 -10 -10 -10 -14 0 -150 -136 -150 -150 0 -5 -5 -10 -11 -10
-14 0 -69 -55 -69 -69 0 -6 -10 -12 -22 -12 -17 -1 -19 -2 -6 -6 16 -4 16 -6
4 -19 -8 -8 -20 -14 -26 -14 -14 0 -110 -96 -110 -110 0 -6 -8 -10 -17 -11
-11 0 -13 -3 -6 -6 16 -6 -8 -33 -29 -33 -13 0 -58 -42 -58 -55 0 -3 -13 -18
-30 -32 -16 -13 -30 -32 -30 -40 0 -10 -6 -13 -16 -9 -11 4 -15 2 -11 -8 4
-10 -2 -16 -16 -18 -14 -2 -23 -11 -25 -26 -2 -12 -8 -20 -13 -16 -10 6 -69
-49 -69 -65 0 -6 -7 -11 -16 -11 -8 0 -12 -4 -9 -10 3 -6 -1 -7 -9 -4 -9 3
-16 2 -16 -4 0 -5 -25 -35 -55 -65 -30 -30 -55 -59 -55 -65 0 -5 -12 -13 -26
-16 -20 -5 -23 -10 -14 -21 9 -10 7 -15 -7 -19 -24 -8 -113 -90 -113 -104 0
-7 -5 -12 -11 -12 -13 0 -69 -55 -69 -68 0 -5 -12 -13 -26 -16 -20 -5 -23 -10
-14 -21 9 -10 7 -15 -7 -19 -24 -8 -113 -90 -113 -104 0 -7 -4 -12 -10 -12 -5
0 -30 -15 -55 -34 -24 -19 -61 -40 -80 -47 -19 -7 -35 -17 -35 -21 0 -4 -13
-8 -29 -8 -20 0 -34 -8 -47 -27 -10 -16 -17 -32 -16 -36 3 -11 24 -24 -292
187 -271 181 -587 376 -808 497 l-117 64 2267 2268 c1247 1247 2268 2267 2269
2267 2 0 3 -465 3 -1032z m-787 -4190 l-1206 -1206 -166 157 c-91 87 -191 181
-221 209 l-55 51 1425 1426 1425 1425 3 -427 2 -428 -1207 -1207z m-9238
-21189 c-3 -4 8 -3 25 3 17 5 34 7 38 4 3 -4 -78 -91 -181 -194 l-187 -187 0
190 0 190 155 2 c85 0 153 -3 150 -8z"/>
<path d="M19995 4920 l-520 -520 523 -523 522 -522 0 1043 c0 573 -1 1042 -3
1042 -1 0 -236 -234 -522 -520z"/>
</g>
</svg>
