<?xml version="1.0" standalone="no"?>
<!DOCTYPE svg PUBLIC "-//W3C//DTD SVG 20010904//EN"
 "http://www.w3.org/TR/2001/REC-SVG-20010904/DTD/svg10.dtd">
<svg version="1.0" xmlns="http://www.w3.org/2000/svg"
 width="938.000000pt" height="563.000000pt" viewBox="0 0 938.000000 563.000000"
 preserveAspectRatio="xMidYMid meet">
<metadata>
Created by potrace 1.16, written by Peter Selinger 2001-2019
</metadata>
<g transform="translate(0.000000,563.000000) scale(0.100000,-0.100000)"
fill="#000000" stroke="none">
<path d="M4400 5295 c-821 -100 -1531 -587 -1920 -1317 l-52 -98 86 0 c85 0
87 0 104 30 9 16 39 68 66 114 159 276 465 588 766 780 183 117 501 248 715
295 191 42 314 55 520 55 287 1 497 -33 754 -120 334 -113 616 -284 870 -530
179 -172 310 -338 412 -522 48 -86 54 -93 78 -88 14 3 50 8 79 11 28 4 52 10
52 14 0 14 -117 212 -181 306 -359 528 -928 907 -1554 1035 -238 49 -563 63
-795 35z"/>
<path d="M3545 3680 c-198 -31 -365 -119 -507 -268 -92 -97 -158 -205 -200
-332 -31 -91 -32 -101 -33 -260 0 -195 11 -246 84 -395 87 -177 218 -307 396
-395 147 -72 202 -84 380 -85 116 0 166 4 220 19 85 23 233 91 298 138 l47 35
-86 99 c-47 54 -96 110 -109 122 l-22 24 -43 -27 c-67 -42 -147 -66 -240 -72
-156 -9 -294 41 -406 149 -105 100 -154 222 -154 380 0 155 49 276 154 376
165 159 417 198 618 96 60 -30 41 -42 177 116 l90 104 -43 31 c-64 46 -190
102 -281 125 -92 24 -253 33 -340 20z"/>
<path d="M6810 3675 c-317 -63 -585 -315 -672 -632 -18 -64 -22 -105 -22 -228
1 -134 4 -159 28 -240 92 -303 321 -525 628 -607 118 -31 308 -31 426 0 668
179 886 996 394 1478 -116 114 -279 199 -440 230 -90 17 -254 17 -342 -1z
m299 -340 c94 -23 177 -70 252 -146 163 -164 202 -397 100 -604 -92 -186 -270
-297 -476 -297 -147 0 -271 51 -375 155 -209 209 -209 536 -1 747 133 134 317
188 500 145z"/>
<path d="M1520 3495 l0 -165 560 0 560 0 0 165 0 165 -560 0 -560 0 0 -165z"/>
<path d="M4550 2815 l0 -845 165 0 165 0 2 353 3 352 315 0 315 0 3 -352 2
-353 165 0 165 0 0 845 0 845 -165 0 -165 0 -2 -322 -3 -323 -317 -3 -318 -2
0 325 0 325 -165 0 -165 0 0 -845z"/>
<path d="M1520 2846 c0 -133 3 -165 14 -169 20 -8 861 -9 891 -1 l25 6 0 164
0 164 -465 0 -465 0 0 -164z"/>
<path d="M1520 2135 l0 -165 560 0 560 0 0 165 0 165 -560 0 -560 0 0 -165z"/>
<path d="M2480 1653 c516 -970 1590 -1490 2665 -1292 504 92 985 351 1340 720
122 128 199 224 294 370 80 122 159 265 151 272 -3 2 -39 7 -81 11 l-77 7 -42
-78 c-167 -304 -444 -600 -755 -806 -225 -149 -518 -273 -785 -331 -589 -129
-1210 -24 -1724 292 -302 185 -619 504 -782 788 -27 46 -57 98 -66 114 -17 30
-19 30 -104 30 l-86 0 52 -97z"/>
</g>
</svg>
